# xmcd
#
# Track frame offsets:
# 150
# 9053
# 30169
# 48622
# 65262
# 84996
# 106056
# 119818
# 138386
# 162851
# 178421
# 203649
# 214805
# 230243
# 247614
# 263959
# 282798
# 302964
# 317924
# 336086
#
# Disc length: 4665 seconds
#
# Revision: 0
# Processed by: cddbd v1.5.1PL0 Copyright (c) Steve Scherf et al.
# Submitted via: Audion 3.0.2 (http://www.panic.com/audion/)
#
DISCID=17123714
DTITLE=VAROS - VARIOS
DYEAR=1900
DGENRE=
TTITLE0=INTRO
TTITLE1=MIEDO
TTITLE2=LENTO
TTITLE3=NO ME QUIERO ENAMORAR
TTITLE4=ESO
TTITLE5=DUELE EL AMOR
TTITLE6=MEIO DIA
TTITLE7=ESPIRALES
TTITLE8=SABANAS FRIAS
TTITLE9=CONTIGO SI
TTITLE10=SI PUDIERA VOLVER A VERTE
TTITLE11=VUELVE
TTITLE12=TE QUISE TANTO
TTITLE13=TE SOÑE
TTITLE14=DESDE QUE LLEGASTE
TTITLE15=DEVUELVEME EL AMOR
TTITLE16=AUNQUE NO TE PUEDA VER
TTITLE17=ANDAR CONMIGO
TTITLE18=CUIDATE EL ALMA
TTITLE19=ROSAS
EXTD=
EXTT0=
EXTT1=
EXTT2=
EXTT3=
EXTT4=
EXTT5=
EXTT6=
EXTT7=
EXTT8=
EXTT9=
EXTT10=
EXTT11=
EXTT12=
EXTT13=
EXTT14=
EXTT15=
EXTT16=
EXTT17=
EXTT18=
EXTT19=
PLAYORDER=
